PathFileType	3	(X/Y/Z)	F:\ViconData\AntennenMessung\Messung1\Session1\ID17.trc
DataRate	CameraRate	NumFrames	NumMarkers	Units	OrigDataRate	OrigDataStartFrame	OrigNumFrames
120.0	120.0	6	70	mm	120.0	111	880	
Frame#	Time	Ashort			Along			Atop			A4			Bshort			Blong			Btop			B4			Cshort			Clong			Ctop			C4			Dshort			Dlong			Dtop			D4			Eshort			Elong			Etop			E4			Fshort			Flong			Ftop			F4			Gshort			Glong			Gtop			G4			Hshort			Hlong			Htop			H4			I1			I2			I3			I4			I5			WandAshort			WandAlong			WandAtop			WandA4			WandA15			WandBshort			WandB4			WandB5			WandBtop			WandBlong			WandCshort			WandClong			WandCtop			WandC4			WandC5			Acenter			Aantenna			Bcenter			Bantenna			Ccenter			Cantenna			Dcenter			Dantenna			Ecenter			Eantenna			Fcenter			Fantenna			Gcenter			Gantenna			Hcenter			Hantenna			Icenter			Iantenna			
		X1	Y1	Z1	X2	Y2	Z2	X3	Y3	Z3	X4	Y4	Z4	X5	Y5	Z5	X6	Y6	Z6	X7	Y7	Z7	X8	Y8	Z8	X9	Y9	Z9	X10	Y10	Z10	X11	Y11	Z11	X12	Y12	Z12	X13	Y13	Z13	X14	Y14	Z14	X15	Y15	Z15	X16	Y16	Z16	X17	Y17	Z17	X18	Y18	Z18	X19	Y19	Z19	X20	Y20	Z20	X21	Y21	Z21	X22	Y22	Z22	X23	Y23	Z23	X24	Y24	Z24	X25	Y25	Z25	X26	Y26	Z26	X27	Y27	Z27	X28	Y28	Z28	X29	Y29	Z29	X30	Y30	Z30	X31	Y31	Z31	X32	Y32	Z32	X33	Y33	Z33	X34	Y34	Z34	X35	Y35	Z35	X36	Y36	Z36	X37	Y37	Z37	X38	Y38	Z38	X39	Y39	Z39	X40	Y40	Z40	X41	Y41	Z41	X42	Y42	Z42	X43	Y43	Z43	X44	Y44	Z44	X45	Y45	Z45	X46	Y46	Z46	X47	Y47	Z47	X48	Y48	Z48	X49	Y49	Z49	X50	Y50	Z50	X51	Y51	Z51	X52	Y52	Z52	X53	Y53	Z53	X54	Y54	Z54	X55	Y55	Z55	X56	Y56	Z56	X57	Y57	Z57	X58	Y58	Z58	X59	Y59	Z59	X60	Y60	Z60	X61	Y61	Z61	X62	Y62	Z62	X63	Y63	Z63	X64	Y64	Z64	X65	Y65	Z65	X66	Y66	Z66	X67	Y67	Z67	X68	Y68	Z68	X69	Y69	Z69	X70	Y70	Z70	
111	0.91666667	-1038.2095	214.33986	-1644.234	-1109.3633	203.94096	-1599.2983	-1063.8132	172.46437	-1625.3947	-1054.1743	262.16553	-1634.9425	-1352.9772	234.78027	1003.8532	-1281.3666	227.17642	1052.4183	-1322.7866	193.64095	1020.9844	-1284.7228	287.73798	1052.8839	814.00684	187.55592	1209.441	892.18671	178.52132	1179.1318	844.44824	145.58328	1198.2607	860.87018	292.4671	1168.1161	1115.7261	209.55753	-1401.618	1056.2971	194.18108	-1460.4722	1095.0128	162.14398	-1423.8229	1069.8079	238.67053	-1425.8193	-1204.609	1686.0077	-1563.0422	-1129.1915	1688.2479	-1605.9817	-1173.1815	1724.403	-1581.9626	-1134.0779	1580.9484	-1603.8342	-1239.4794	1698.9364	1119.4363	-1309.2727	1698.6326	1071.8877	-1270.3447	1736.1814	1096.8633	-1245.447	1592.6765	1110.6917	988.88818	1664.2235	1162.1895	955.83319	1702.2983	1181.0734	922.8927	1661.9513	1215.0742	939.75824	1659.3911	1159.8435	999.02783	1668.4106	-1579.443	1058.7384	1669.964	-1518.6337	1024.9514	1708.0087	-1551.1097	1059.2416	1672.1056	-1585.4329	-184.50783	167.20973	-293.95349	-175.22202	174.70139	-377.51706	-180.313	132.40649	-335.06152	-211.84602	170.26254	-333.11398	-133.09117	168.90622	-326.16263																																														-1068.9246	209.85092	-1624.8365	-1074.2068	248.48723	-1624.2598	-1321.59	231.44748	1025.1394	-1320.3636	270.19489	1029.3978	848.06012	183.62065	1196.239	851.7417	222.39177	1194.1783	1088.8807	202.61165	-1428.2036	1083.071	240.95248	-1432.3542	-1171.9005	1686.9791	-1581.665	-1170.5664	1648.0033	-1581.3551	-1270.9526	1698.7993	1097.9943	-1271.5864	1659.8224	1099.1735	953.61292	1704.8556	1182.3416	972.90698	1731.8021	1161.7837	1026.4141	1669.1229	-1551.5526	1027.88	1630.1531	-1551.9965	-180.32008	170.58833	-331.63919	-180.32729	209.4326	-328.1575
112	0.925	-1038.2271	214.43617	-1644.3145	-1109.4032	204.04292	-1599.3506	-1063.9857	172.39919	-1625.3143	-1054.1858	262.17935	-1634.9666	-1353.0193	234.80441	1003.6777	-1281.4321	227.22012	1052.4058	-1322.8147	193.69678	1021.0161	-1284.71	287.78073	1052.9124	813.9834	187.59753	1209.4255	892.25104	178.30603	1179.2445	844.37781	145.43753	1198.3035	860.93475	292.49649	1168.3513	1115.6986	209.53702	-1401.6051	1056.3049	193.99875	-1460.3065	1095.1511	162.33516	-1423.8354	1069.7986	238.67386	-1425.8342	-1204.6146	1686.0156	-1563.0302	-1129.1624	1688.2574	-1605.9868	-1173.1804	1724.3843	-1581.949	-1134.0756	1580.9614	-1603.851	-1239.5007	1698.9784	1119.4493	-1309.2616	1698.635	1071.885	-1270.3556	1736.2147	1096.8727	-1245.4255	1592.6417	1110.6694	988.89392	1664.2223	1162.2051	955.77618	1702.1904	1181.0461	922.92535	1661.9941	1215.0696	939.77301	1659.4241	1159.8485	999.01306	1668.4304	-1579.4652	1058.7433	1669.9698	-1518.6387	1024.9617	1707.9927	-1551.103	1059.2482	1672.104	-1585.4403	-184.51372	167.20381	-293.96133	-175.20673	174.70651	-377.51437	-180.27936	132.39027	-335.05313	-211.8598	170.25006	-333.10892	-133.11029	168.86356	-326.14581																																														-1069.1335	209.92314	-1624.7898	-1074.434	248.55753	-1624.2498	-1321.578	231.47337	1025.079	-1320.3094	270.22922	1029.2474	848.1153	183.54556	1196.2638	851.91663	222.30438	1194.1895	1088.8719	202.51878	-1428.1189	1082.8842	240.83926	-1432.2039	-1171.9016	1686.9875	-1581.6543	-1170.5687	1648.0115	-1581.3472	-1270.9462	1698.8236	1098.0092	-1271.562	1659.8464	1099.1937	953.45483	1704.8517	1182.3666	972.67316	1731.8303	1161.7803	1026.4216	1669.1367	-1551.5533	1027.886	1630.1669	-1552.005	-180.31804	170.58607	-331.62756	-180.35739	209.43016	-328.14395
113	0.93333333	-1038.2292	214.47247	-1644.2291	-1109.3494	204.02863	-1599.3641	-1063.8625	172.47614	-1625.3531	-1054.1829	262.16666	-1634.9509	-1353.0002	234.78069	1003.8743	-1281.3431	227.08849	1052.412	-1322.8754	193.64705	1021.0491	-1284.7462	287.73798	1052.8983	814.06207	187.51472	1209.4692	892.12158	178.39418	1179.2487	844.40576	145.55164	1198.2975	860.93475	292.5379	1168.3108	1115.7456	209.80624	-1401.7766	1056.2313	193.97626	-1460.3109	1095.1249	162.23595	-1423.8873	1069.8092	238.5966	-1425.7828	-1204.5149	1685.9221	-1563.229	-1129.1733	1688.2617	-1606.0155	-1173.1969	1724.401	-1581.9559	-1134.0709	1580.944	-1603.8413	-1239.5079	1698.9612	1119.4468	-1309.2799	1698.733	1071.9259	-1270.3694	1736.2195	1096.8768	-1245.4052	1592.5946	1110.679	988.97205	1664.2789	1162.2502	955.77008	1702.2599	1181.0291	922.78723	1661.972	1215.0339	939.80389	1659.3986	1159.8895	999.02905	1668.4196	-1579.4331	1058.8804	1670.1497	-1518.6227	1024.9717	1708.0063	-1551.1118	1059.2545	1672.1056	-1585.436	-184.51747	167.20943	-293.96558	-175.20761	174.70792	-377.50406	-180.27582	132.45395	-335.05905	-211.84134	170.25223	-333.12192	-133.10168	168.87531	-326.13525																																														-1069.02	209.95088	-1624.8052	-1074.3368	248.58264	-1624.2405	-1321.5967	231.40958	1025.1458	-1320.2844	270.16013	1029.3497	848.07202	183.54095	1196.3022	851.81323	222.30766	1194.2662	1088.7494	202.62561	-1428.3281	1082.7042	240.92346	-1432.5391	-1171.913	1686.9344	-1581.7435	-1170.5771	1647.958	-1581.5227	-1271.0073	1698.8582	1097.9928	-1271.6729	1659.8811	1099.157	953.43823	1704.9272	1182.3479	972.69611	1731.9158	1161.8115	1026.5048	1669.2137	-1551.5168	1028.0447	1630.2463	-1551.924	-180.31882	170.59117	-331.64056	-180.36263	209.43542	-328.15875
114	0.94166667	-1038.2167	214.4169	-1644.1835	-1109.3472	204.05769	-1599.3206	-1063.8595	172.45161	-1625.3759	-1054.1794	262.16812	-1634.9696	-1353.0585	234.77022	1003.8133	-1281.3138	227.31155	1052.2821	-1322.8307	193.64345	1021.0615	-1284.71	287.76447	1052.9055	814.0423	187.65181	1209.412	892.32782	178.41553	1179.129	844.4071	145.49326	1198.3433	860.92786	292.45605	1168.2797	1115.7119	209.56262	-1401.623	1056.201	193.93462	-1460.3274	1095.1294	162.23196	-1423.8674	1069.8254	238.65886	-1425.8235	-1204.5883	1685.9791	-1563.0776	-1129.1637	1688.2799	-1606.0248	-1173.1801	1724.4015	-1581.9524	-1134.0702	1580.9508	-1603.8472	-1239.5323	1699.0059	1119.4517	-1309.3121	1698.7186	1071.9227	-1270.3424	1736.1749	1096.8595	-1245.5237	1592.7361	1110.6833	988.90271	1664.2411	1162.2059	955.73035	1702.203	1180.9935	922.83496	1661.9984	1215.0945	939.79236	1659.4259	1159.8893	999.02844	1668.4185	-1579.434	1058.7443	1669.9688	-1518.6433	1024.9576	1708.0072	-1551.1089	1059.2394	1672.1024	-1585.428	-184.5166	167.19266	-293.95102	-175.22066	174.70164	-377.48911	-180.29514	132.38364	-335.03571	-211.83093	170.23509	-333.1264	-133.12036	168.83977	-326.1395																																														-1068.9541	209.9404	-1624.797	-1074.2053	248.58064	-1624.2003	-1321.6001	231.49976	1025.0657	-1320.3402	270.26315	1029.1658	848.09338	183.63438	1196.24	851.83966	222.39516	1194.1025	1088.8	202.49536	-1428.17	1082.7773	240.80939	-1432.2643	-1171.892	1686.9764	-1581.6951	-1170.5504	1648.0004	-1581.4271	-1270.985	1698.8763	1098.0283	-1271.6566	1659.9012	1099.2498	953.37354	1704.9	1182.3282	972.57642	1731.8767	1161.7249	1026.4177	1669.1294	-1551.5516	1027.8812	1630.1594	-1551.9954	-180.32642	170.57735	-331.60605	-180.35823	209.42104	-328.11804
115	0.95	-1038.2218	214.42384	-1644.2098	-1109.3612	203.98634	-1599.3209	-1063.8323	172.45195	-1625.3789	-1054.1748	262.15204	-1634.9563	-1352.9791	234.81001	1003.8427	-1281.4445	227.2274	1052.3815	-1322.8319	193.63629	1021.0963	-1284.7336	287.8353	1052.8342	813.97388	187.60872	1209.408	892.20587	178.53879	1179.1724	844.38965	145.58037	1198.2415	860.94299	292.53577	1168.23	1115.7483	209.80464	-1401.7792	1056.2313	193.92424	-1460.3015	1095.1639	162.29083	-1423.9	1069.7743	238.66406	-1425.8451	-1204.5931	1686.005	-1563.0847	-1129.1743	1688.2676	-1606.011	-1173.1898	1724.3959	-1581.9702	-1134.0852	1580.9427	-1603.8154	-1239.4961	1698.9541	1119.4349	-1309.2805	1698.7104	1071.9144	-1270.358	1736.1982	1096.87	-1245.5562	1592.7408	1110.6947	988.9043	1664.2189	1162.2516	955.87207	1702.2101	1181.0977	922.80994	1661.9259	1215.0726	939.81653	1659.4196	1159.8792	999.04504	1668.4243	-1579.4586	1058.8604	1670.1301	-1518.6332	1024.9574	1708.0085	-1551.1178	1059.2448	1672.1046	-1585.4403	-184.52672	167.187	-293.9754	-175.21135	174.70201	-377.50671	-180.25284	132.44882	-335.05759	-211.83772	170.23549	-333.13776	-133.1104	168.88229	-326.13055																																														-1068.9686	209.91269	-1624.8086	-1074.266	248.54678	-1624.2203	-1321.5729	231.48097	1025.153	-1320.2838	270.23761	1029.3074	848.03271	183.66005	1196.2446	851.74182	222.43001	1194.2115	1088.7552	202.60229	-1428.321	1082.6675	240.89464	-1432.5208	-1171.9072	1686.9855	-1581.6886	-1170.5709	1648.0094	-1581.3953	-1270.9896	1698.8441	1097.989	-1271.6488	1659.8671	1099.1567	953.56329	1704.8654	1182.4148	972.87769	1731.8333	1161.9042	1026.4967	1669.2072	-1551.5432	1028.0425	1630.2401	-1551.9706	-180.32684	170.57515	-331.63571	-180.40227	209.41895	-328.14948
116	0.95833333	-1038.2333	214.43477	-1644.1981	-1109.3708	204.05859	-1599.3236	-1063.8298	172.39009	-1625.2867	-1054.1893	262.16745	-1634.9723	-1352.9224	234.82867	1003.7698	-1281.368	227.23672	1052.325	-1322.9067	193.69214	1021.0007	-1284.6873	287.86435	1052.8156	813.97119	187.56247	1209.3463	892.35223	177.88942	1179.5304	844.34064	145.59106	1198.257	860.88361	292.39191	1168.1719	1115.7589	209.82951	-1401.801	1056.2756	194.00627	-1460.317	1095.1769	162.35345	-1423.9105	1069.7739	238.65784	-1425.8613	-1204.5884	1685.9874	-1563.0925	-1129.1555	1688.2692	-1606.0277	-1173.1813	1724.3983	-1581.9728	-1134.0789	1580.9443	-1603.8247	-1239.5283	1699.0057	1119.4559	-1309.276	1698.6614	1071.9062	-1270.3466	1736.1855	1096.8672	-1245.4559	1592.601	1110.6458	988.93103	1664.2579	1162.2373	955.84711	1702.2932	1181.0941	922.83502	1661.9138	1215.0693	939.77637	1659.3947	1159.908	999.03339	1668.4031	-1579.4338	1058.8741	1670.1377	-1518.6249	1024.9614	1708.0126	-1551.1161	1059.2516	1672.0953	-1585.4449	-184.51753	167.19087	-293.99445	-175.20094	174.70506	-377.50378	-180.27571	132.43689	-335.08517	-211.82423	170.20903	-333.11224	-133.11449	168.86362	-326.14142																																														-1068.9962	209.94766	-1624.7925	-1074.3105	248.58054	-1624.2842	-1321.6169	231.50716	1025.0127	-1320.2949	270.26718	1029.1251	848.25543	183.33142	1196.3046	852.27405	222.07202	1194.3004	1088.7974	202.65742	-1428.324	1082.7355	240.9545	-1432.5178	-1171.8948	1686.9763	-1581.7012	-1170.5549	1648.0004	-1581.4183	-1270.9553	1698.8503	1098.0308	-1271.5911	1659.8745	1099.2455	953.59717	1704.8796	1182.3765	972.90442	1731.8463	1161.8575	1026.4999	1669.1991	-1551.5228	1028.0443	1630.2318	-1551.9312	-180.31569	170.57979	-331.65753	-180.35643	209.42325	-328.16693
